<svg width="882" height="268" viewBox="0 0 882 268" fill="none" xmlns="http://www.w3.org/2000/svg">
<path d="M319.475 87.116V191.267H306.66V75.932H351.396V191.267H338.581V87.116H319.475Z" fill="#000A31"/>
<path d="M361.708 171.229V95.737C361.708 81.99 371.727 75 381.746 75C391.532 75 401.551 81.99 401.551 95.97V170.996C401.551 184.976 391.532 191.966 381.746 191.966C371.727 191.966 361.708 184.976 361.708 171.229ZM374.057 86.65V170.996C374.057 177.52 377.785 180.782 381.746 180.782C385.474 180.782 389.202 177.52 389.202 170.996V86.65H374.057Z" fill="#000A31"/>
<path d="M423.005 89.213V191.267H410.656V75.932H443.276V89.213H423.005Z" fill="#000A31"/>
<path d="M472.229 191.267V87.815H460.579L456.618 170.53C455.919 185.442 448.929 192.432 434.017 192.432V180.316C434.716 180.549 435.414 180.549 436.346 180.549C443.336 180.549 444.035 172.627 444.268 168.433L448.928 75.699H484.811V191.267H472.229Z" fill="#000A31"/>
<path d="M535.377 191.5H523.028V182.646H521.63C521.397 186.607 516.504 192.199 508.582 192.199C496.699 192.199 493.67 181.015 493.67 171.462V134.415C493.67 124.862 496.932 113.678 508.815 113.678C518.135 113.678 521.397 119.27 521.63 123.231H523.028V92.941C523.028 88.281 519.533 85.951 516.038 85.951C512.31 85.951 508.815 88.281 508.815 92.941V107.154H496.466V95.97C496.466 82.689 503.689 75.233 516.038 75.233C528.154 75.233 535.377 82.922 535.377 95.97V191.5ZM513.708 181.714C520.465 181.714 523.028 175.656 523.028 170.763V135.114C523.028 130.221 520.931 124.163 514.174 124.163C508.582 124.163 506.019 130.221 506.019 134.648V168.899C506.019 177.287 508.116 181.714 513.708 181.714Z" fill="#000A31"/>
<path d="M609.001 157.482V191.267H596.652V169.598H556.11V191.267H543.761V157.482H552.149V145.366C559.139 145.366 561.003 136.745 561.236 132.085L563.799 75.932H598.982V157.482H609.001ZM558.673 157.482H586.4V88.747H575.216L573.119 134.415C572.653 147.463 568.226 155.152 558.673 157.482Z" fill="#000A31"/>
<path d="M631.204 75.699V110.416H643.087C653.572 110.416 661.494 115.775 661.494 129.056V169.365C661.494 183.578 652.407 191.267 641.922 191.267H618.622V75.699H631.204ZM641.922 121.367H631.204V180.083H648.213V133.017C648.213 125.328 646.116 121.367 641.922 121.367Z" fill="#000A31"/>
<path d="M715.848 140.473V191.267H703.732V75.466H715.848V117.406H718.411L735.187 75.932H748.934L732.857 115.309C730.061 122.299 724.702 127.891 716.78 127.425V129.755C724.702 129.522 729.129 131.153 731.459 137.444L751.264 191.267H737.983L719.11 140.473H715.848Z" fill="#000A31"/>
<path d="M751.255 171.229V95.737C751.255 81.99 761.274 75 771.293 75C781.079 75 791.098 81.99 791.098 95.97V170.996C791.098 184.976 781.079 191.966 771.293 191.966C761.274 191.966 751.255 184.976 751.255 171.229ZM763.604 86.65V170.996C763.604 177.52 767.332 180.782 771.293 180.782C775.021 180.782 778.749 177.52 778.749 170.996V86.65H763.604Z" fill="#000A31"/>
<path d="M822.659 87.582V191.966H810.31V87.582H794.466V75.699H838.27V87.582H822.659Z" fill="#000A31"/>
<path d="M881.236 191.5H868.887V182.646H867.489C867.256 186.607 862.363 192.199 854.441 192.199C842.558 192.199 839.529 181.015 839.529 171.462V134.415C839.529 124.862 842.791 113.678 854.674 113.678C863.994 113.678 867.256 119.27 867.489 123.231H868.887V92.941C868.887 88.281 865.392 85.951 861.897 85.951C858.169 85.951 854.674 88.281 854.674 92.941V107.154H842.325V95.97C842.325 82.689 849.548 75.233 861.897 75.233C874.013 75.233 881.236 82.922 881.236 95.97V191.5ZM859.567 181.714C866.324 181.714 868.887 175.656 868.887 170.763V135.114C868.887 130.221 866.79 124.163 860.033 124.163C854.441 124.163 851.878 130.221 851.878 134.648V168.899C851.878 177.287 853.975 181.714 859.567 181.714Z" fill="#000A31"/>
<path d="M123.509 26.4867C125.755 26.2582 128.125 26.3695 130.387 26.3723C135.502 26.3789 140.701 26.3934 145.788 26.9641C148.784 27.3 151.719 27.993 154.73 28.2406C150.711 32.2527 146.588 37.8762 141.211 39.9574C140.455 40.0926 139.659 40.1133 138.892 40.1344C135.904 40.2168 124.452 40.425 122.401 39.6254C119.123 38.3481 112.518 31.4742 109.654 28.7375C114.064 27.377 118.921 26.868 123.509 26.4867Z" fill="#A0CED6"/>
<path d="M22.3362 142.093C21.9369 140.259 22.1713 137.673 22.1721 135.772C22.1783 122.126 25.3502 102.145 31.5576 89.9344L38.5803 103.602C39.5229 105.404 40.4451 107.739 41.7373 109.281C38.8166 118.007 35.4994 126.6 30.0393 134.084C29.049 135.441 27.9002 137.065 26.6123 138.145C25.5041 138.667 22.969 140.334 22.4658 141.48C22.3869 141.66 22.3608 141.898 22.3362 142.093Z" fill="#A0CED6"/>
<path d="M226.51 79.0286C236.558 92.7852 241.569 115.669 242.038 132.436C242.117 135.29 242.357 138.435 241.907 141.253C241.853 141.591 241.848 141.587 241.771 141.865C241.75 141.4 241.749 140.933 241.742 140.467C240.937 138.945 239.378 138.568 237.87 137.98L237.687 137.561L237.94 137.22C237.232 136.477 236.383 135.859 235.646 135.138C233.03 132.577 230.504 129.695 228.566 126.59C224.735 120.451 223.168 113.581 221.888 106.557C221.553 104.722 221.001 102.57 221.23 100.706C221.58 97.8446 223.025 94.2051 223.772 91.3333C224.83 87.2661 225.561 83.1223 226.51 79.0286Z" fill="url(#paint0_linear_2687_139)"/>
<path d="M127.429 5.39846C142.536 4.49377 161.464 6.97697 175.768 12.0535C170.56 15.0211 166.177 19.1676 161.263 22.5653C153.344 20.584 145.683 19.2364 137.517 18.7981C125.197 18.5258 114.626 19.6508 102.707 22.8035C101.244 21.8547 99.8937 20.5707 98.5062 19.5C95.3309 17.0469 92.1288 14.6293 88.8999 12.2473C92.1694 10.9067 95.6823 10.0621 99.114 9.24885C108.513 7.02073 117.783 5.85002 127.429 5.39846Z" fill="#003C5D"/>
<path d="M43.698 0C49.5531 2.32734 55.4664 4.6 61.1886 7.24531C73.8144 13.0824 86.3507 20.534 97.325 29.1254C100.802 31.8477 104.269 34.7645 107.527 37.7449C109.764 39.7922 111.882 42.0602 114.277 43.9188L114.544 44.1242C125.973 42.2617 138.613 41.966 149.968 44.4328C153.225 41.425 156.288 38.166 159.668 35.2973C174.237 22.9309 190.518 13.4004 207.849 5.50274C211.57 3.80703 216.284 1.12461 220.166 0.0746071C220.768 2.30312 221.624 4.4832 222.3 6.69492C223.905 11.9477 225.432 17.3016 226.713 22.6418C231.094 40.898 230.7 60.7785 226.51 79.0285C225.561 83.1223 224.83 87.266 223.772 91.3332C223.025 94.2051 221.579 97.8445 221.229 100.706C221.001 102.57 221.553 104.721 221.887 106.557C223.168 113.58 224.735 120.451 228.566 126.589C230.504 129.695 233.03 132.577 235.646 135.138C236.383 135.859 237.232 136.477 237.94 137.22L237.687 137.561L237.87 137.98C239.378 138.568 240.937 138.945 241.742 140.467C241.748 140.933 241.75 141.4 241.771 141.865C240.775 160.027 234.247 177.659 225.052 193.192C222.035 198.288 218.529 203.629 214.248 207.755C215.445 210.137 217.031 212.416 218.439 214.686C221.599 211.348 224.383 207.746 227.096 204.042C239.957 186.484 248.495 165.464 250.145 143.64C250.206 142.915 250.26 142.19 250.308 141.464C250.355 140.739 250.396 140.013 250.43 139.286C250.464 138.56 250.491 137.833 250.511 137.106C250.531 136.379 250.544 135.652 250.551 134.925C250.558 134.197 250.557 133.47 250.55 132.743C250.543 132.015 250.53 131.288 250.509 130.561C250.488 129.835 250.461 129.108 250.427 128.381C250.393 127.655 250.352 126.929 250.304 126.203C250.256 125.477 250.201 124.752 250.14 124.027C250.079 123.303 250.01 122.579 249.936 121.855C249.861 121.132 249.779 120.409 249.69 119.687C249.602 118.965 249.506 118.244 249.405 117.524C249.303 116.804 249.194 116.085 249.078 115.367C248.963 114.649 248.841 113.932 248.712 113.216C248.583 112.5 248.448 111.786 248.305 111.073C248.163 110.359 248.014 109.648 247.859 108.937C247.703 108.227 247.541 107.518 247.372 106.81C247.203 106.103 247.028 105.397 246.846 104.693C246.664 103.989 246.475 103.286 246.28 102.586C246.085 101.885 245.883 101.187 245.675 100.49C245.466 99.793 245.252 99.0982 245.03 98.4055C244.809 97.7125 244.581 97.0217 244.347 96.3332C244.113 95.6447 243.872 94.9585 243.625 94.2746C243.378 93.5905 243.125 92.9087 242.865 92.2293C242.605 91.5501 242.339 90.8734 242.066 90.1992C241.794 89.5247 241.515 88.853 241.23 88.184C240.945 87.515 240.654 86.8486 240.356 86.1848C240.059 85.5212 239.755 84.8604 239.445 84.2023C239.135 83.5445 238.819 82.8896 238.497 82.2375C238.175 81.5854 237.846 80.9365 237.512 80.2906C237.178 79.6448 236.837 79.0021 236.491 78.3625C236.145 77.7229 235.792 77.0867 235.434 76.4539C236.04 69.9734 237.28 63.4754 238.062 56.9992C240.862 61.1289 243.81 65.2676 246.308 69.5852C246.945 70.6794 247.566 71.7829 248.17 72.8957C248.774 74.0085 249.362 75.13 249.933 76.2602C250.504 77.3904 251.058 78.5288 251.594 79.6754C252.131 80.8223 252.651 81.9768 253.153 83.1391C253.656 84.3013 254.141 85.4707 254.609 86.6473C255.076 87.8241 255.526 89.0076 255.959 90.1977C256.391 91.3878 256.805 92.584 257.202 93.7863C257.599 94.9889 257.978 96.197 258.338 97.4105C258.699 98.6244 259.041 99.8432 259.366 101.067C259.69 102.291 259.996 103.52 260.284 104.753C260.571 105.986 260.841 107.223 261.092 108.464C261.343 109.705 261.575 110.95 261.789 112.198C262.002 113.446 262.198 114.697 262.374 115.95C262.55 117.204 262.708 118.461 262.847 119.719C262.986 120.978 263.106 122.238 263.208 123.5C263.309 124.762 263.392 126.026 263.456 127.29C263.637 131.232 264.14 136.948 263.512 140.793C263.454 141.88 263.383 142.966 263.298 144.052C263.213 145.137 263.115 146.221 263.004 147.304C262.893 148.386 262.768 149.468 262.63 150.547C262.493 151.627 262.342 152.705 262.177 153.781C262.013 154.857 261.836 155.931 261.645 157.003C261.455 158.074 261.251 159.143 261.034 160.21C260.817 161.277 260.587 162.341 260.345 163.402C260.102 164.463 259.846 165.521 259.577 166.576C259.308 167.63 259.026 168.682 258.732 169.73C258.437 170.778 258.129 171.822 257.809 172.862C257.489 173.902 257.156 174.939 256.81 175.971C256.465 177.003 256.106 178.031 255.736 179.054C255.365 180.077 254.981 181.096 254.585 182.11C254.189 183.124 253.781 184.133 253.361 185.137C252.94 186.141 252.507 187.14 252.062 188.133C251.617 189.126 251.159 190.114 250.69 191.096C250.221 192.078 249.74 193.054 249.246 194.025C248.753 194.995 248.248 195.959 247.731 196.917C247.214 197.875 246.685 198.826 246.145 199.771C245.605 200.716 245.053 201.654 244.49 202.586C243.927 203.517 243.352 204.442 242.766 205.359C242.18 206.276 241.583 207.186 240.975 208.089C240.366 208.992 239.747 209.887 239.117 210.774C238.486 211.662 237.845 212.541 237.193 213.413C236.542 214.285 235.879 215.149 235.206 216.004C234.533 216.86 233.85 217.707 233.156 218.546C232.462 219.385 231.758 220.215 231.044 221.036C230.33 221.858 229.606 222.67 228.872 223.474C228.138 224.277 227.394 225.072 226.64 225.857C225.887 226.643 225.124 227.419 224.351 228.186C223.578 228.953 222.797 229.71 222.005 230.457C221.214 231.205 220.414 231.943 219.605 232.671C218.673 233.498 217.731 234.312 216.777 235.114C215.824 235.916 214.86 236.705 213.885 237.481C212.911 238.257 211.926 239.02 210.931 239.77C209.936 240.52 208.931 241.256 207.917 241.979C206.902 242.702 205.878 243.411 204.844 244.106C203.811 244.802 202.768 245.483 201.716 246.151C200.664 246.819 199.604 247.472 198.534 248.111C197.465 248.751 196.387 249.376 195.302 249.986C194.216 250.596 193.122 251.192 192.02 251.773C190.918 252.354 189.808 252.921 188.691 253.472C187.574 254.024 186.45 254.56 185.318 255.082C184.187 255.603 183.049 256.109 181.904 256.6C180.759 257.092 179.608 257.567 178.45 258.027C177.292 258.487 176.128 258.932 174.959 259.361C173.789 259.79 172.614 260.204 171.434 260.602C170.253 260.999 169.067 261.381 167.877 261.747C161.924 263.513 155.808 264.699 149.703 265.798C144.329 266.766 136.266 268.175 130.916 267.925C124.985 267.648 118.781 266.6 112.929 265.561C108.649 264.802 104.356 264.032 100.149 262.928C99.3604 262.72 98.5737 262.504 97.789 262.282C97.0041 262.06 96.2214 261.83 95.441 261.593C94.6602 261.357 93.8819 261.113 93.1058 260.862C92.3298 260.611 91.556 260.352 90.7843 260.087C90.013 259.822 89.2442 259.549 88.4781 259.27C87.7117 258.991 86.9479 258.704 86.1867 258.411C85.4255 258.117 84.6672 257.817 83.9117 257.51C83.156 257.202 82.4032 256.888 81.6535 256.567C80.9037 256.246 80.1569 255.918 79.4129 255.583C78.6691 255.248 77.9285 254.907 77.191 254.558C76.4535 254.21 75.7192 253.855 74.9882 253.493C74.257 253.131 73.5293 252.762 72.805 252.387C72.0808 252.011 71.3601 251.63 70.6429 251.241C69.9257 250.853 69.2121 250.458 68.5019 250.056C67.792 249.654 67.0858 249.246 66.3832 248.832C65.6808 248.417 64.9823 247.996 64.2875 247.569C63.5927 247.141 62.9018 246.708 62.2148 246.268C61.5281 245.827 60.8454 245.381 60.1668 244.929C59.4881 244.476 58.8138 244.017 58.1437 243.552C57.4734 243.087 56.8075 242.616 56.1461 242.139C55.4843 241.662 54.8272 241.178 54.1746 240.689C53.522 240.2 52.8738 239.705 52.23 239.204C51.5865 238.702 50.9476 238.195 50.3132 237.682C49.6791 237.17 49.0496 236.651 48.4246 236.127C47.7998 235.602 47.18 235.072 46.5652 234.536C45.9501 234 45.3399 233.459 44.7347 232.912C44.1298 232.365 43.5298 231.812 42.9347 231.254C42.3397 230.696 41.75 230.133 41.1656 229.564C40.5809 228.995 40.0015 228.421 39.4273 227.841C38.8533 227.262 38.2846 226.677 37.7211 226.087C37.1578 225.497 36.6 224.902 36.0476 224.302C35.4953 223.702 34.9484 223.096 34.407 222.486C33.6838 221.68 32.9705 220.864 32.2671 220.04C31.564 219.216 30.8711 218.383 30.1882 217.542C29.5052 216.701 28.8326 215.851 28.1707 214.994C27.5087 214.136 26.8573 213.27 26.2164 212.397C25.5757 211.523 24.9458 210.642 24.3265 209.753C23.7073 208.864 23.099 207.967 22.5019 207.063C21.9045 206.159 21.3183 205.248 20.7433 204.33C20.1686 203.411 19.605 202.486 19.0527 201.554C18.5004 200.622 17.9596 199.683 17.4304 198.738C16.9013 197.793 16.3837 196.841 15.8777 195.883C15.3717 194.925 14.8776 193.961 14.3953 192.99C13.913 192.02 13.4427 191.044 12.9843 190.062C12.526 189.081 12.0798 188.094 11.6457 187.101C11.2113 186.108 10.7893 185.111 10.3796 184.108C9.96975 183.105 9.57236 182.097 9.18746 181.084C8.80231 180.071 8.42978 179.054 8.06988 178.032C7.70973 177.011 7.36207 175.984 7.02691 174.954C6.69202 173.924 6.36975 172.889 6.06011 171.851C5.75048 170.813 5.4536 169.771 5.16949 168.725C4.88538 167.68 4.61415 166.631 4.35582 165.579C4.09749 164.527 3.85204 163.471 3.61949 162.413C3.38694 161.355 3.16741 160.294 2.9609 159.23C2.75439 158.167 2.5609 157.101 2.38043 156.033C2.20022 154.964 2.03291 153.894 1.87848 152.821C1.72431 151.749 1.58329 150.675 1.45543 149.599C1.32756 148.523 1.21298 147.446 1.11168 146.367C1.01011 145.289 0.921836 144.209 0.846836 143.128C0.771836 142.047 0.710118 140.965 0.66168 139.883C0.613243 138.801 0.578085 137.718 0.55621 136.635C0.534074 135.552 0.52535 134.468 0.530037 133.385C0.534464 132.301 0.552306 131.218 0.583556 130.135C0.614806 129.052 0.659203 127.97 0.716755 126.888C1.35972 114.779 3.46793 102.466 7.56793 91.0297C8.59957 88.1531 9.85387 85.3383 11.0519 82.5273C13.7691 76.1512 16.875 69.916 20.6906 64.118C22.5039 61.3621 24.3746 58.1121 26.6808 55.7504C27.1535 62.4781 27.9562 69.4238 28.9851 76.0914L28.9144 76.2449C28.0699 78.041 26.9902 79.7391 26.1203 81.5367C23.6617 86.6152 21.4437 91.9664 19.6597 97.3215C11.9273 120.53 12.1586 149.218 20.3332 172.268C24.7648 184.765 31.1839 196.203 39.0929 206.811C41.1171 209.527 43.2257 212.412 45.6652 214.77C47.1691 212.442 48.8402 209.996 49.9519 207.455C34.3273 189.779 24.1472 165.609 22.3359 142.093C22.3605 141.898 22.3867 141.66 22.4656 141.48C22.9687 140.334 25.5039 138.667 26.6121 138.145C27.9 137.065 29.0488 135.441 30.039 134.084C35.4992 126.6 38.8164 118.007 41.7371 109.281C42.3746 107.536 42.8792 105.758 43.3929 103.975C32.9695 75.2918 32.2609 44.0398 39.3925 14.4973C40.5769 9.59219 42.2 4.81484 43.698 0Z" fill="#000A31"/>
<path d="M58.2425 90.625C59.9788 92.6941 59.5605 102.477 59.3073 105.366C58.5151 114.412 55.1315 123.923 51.0796 131.996C51.8276 132.068 52.594 132.107 53.3319 132.247C52.3319 132.239 51.3319 132.087 50.5421 132.824C49.6042 133.7 49.3694 135.295 48.6452 136.369C47.1306 135.684 45.6283 134.973 44.1382 134.236C48.9878 124.141 52.1604 116.483 54.9069 105.519C56.1397 100.597 56.5437 95.4164 58.2425 90.625Z" fill="#FED8B0"/>
<path d="M22.3359 142.093C22.3605 141.898 22.3867 141.66 22.4656 141.48C22.9688 140.334 25.5039 138.667 26.6121 138.145C28.907 140.08 32.032 141.302 34.6875 142.681C31.7754 145.151 28.677 147.786 26.0809 150.585C29.7445 152.774 33.6613 154.793 37.0992 157.323C39.6543 159.203 42.0047 161.398 44.443 163.429C49.4445 167.593 54.6133 171.843 59.9941 175.507C59.3648 186.77 55.3176 197.632 49.952 207.455C34.3273 189.779 24.1473 165.609 22.3359 142.093Z" fill="#0CA0B0"/>
<path d="M66.8854 199.768C71.1049 202.203 75.2686 204.984 79.26 207.778C81.6256 209.434 92.0283 217.357 93.7291 217.922C93.0693 222.048 91.5979 226.217 90.0361 230.089C90.1627 230.799 90.2775 230.957 90.8596 231.384C92.2193 232.382 93.7881 233.183 95.2221 234.084C98.6697 236.247 102.38 238.641 105.442 241.313C104.59 244.116 103.636 246.885 102.583 249.619C98.458 248.576 94.3689 247.007 90.4221 245.421C80.3107 241.357 72.2529 237.077 63.2615 230.869C60.3752 228.877 57.3877 226.84 54.8428 224.417C57.6994 219.59 60.3709 214.751 62.8869 209.737C64.3502 206.467 65.683 203.144 66.8854 199.768Z" fill="#E25636"/>
<path d="M66.8852 199.768C71.1047 202.203 75.2684 204.984 79.2598 207.778C81.6254 209.434 92.0281 217.357 93.7289 217.922C93.0691 222.048 91.5977 226.217 90.0359 230.089C89.998 229.817 89.9691 229.567 89.7965 229.339C88.8469 228.084 86.7953 226.967 85.491 226.039C81.7504 223.378 64.35 212.46 62.8867 209.737C64.35 206.467 65.6828 203.144 66.8852 199.768Z" fill="#EC7626"/>
<path d="M226.909 142.84C229.224 141.347 231.903 140.32 234.401 139.176C235.513 138.666 236.555 138.025 237.687 137.561L237.87 137.98C239.378 138.568 240.937 138.945 241.742 140.467C241.748 140.933 241.75 141.4 241.771 141.865C240.775 160.027 234.247 177.659 225.051 193.192C222.035 198.288 218.529 203.629 214.248 207.755C213.032 205.826 211.998 203.77 210.834 201.806C209.802 200.067 208.479 198.314 207.683 196.469C206.448 193.605 203.916 178.417 203.593 174.766C206.376 173.159 208.984 171.227 211.595 169.36C220.262 163.161 228.265 156.179 236.859 149.88C233.33 148.025 229.985 145.366 226.909 142.84Z" fill="#0CA0B0"/>
<path d="M169.183 218.516C173.07 215.497 177.227 212.852 181.297 210.09C186.41 206.62 191.456 203.096 196.633 199.723L201.791 209.045C204.617 213.751 207.344 218.509 210.273 223.154C206.654 225.92 203.063 228.817 199.332 231.427C186.887 240.133 176.06 244.599 161.753 249.298C160.669 246.622 159.602 243.94 158.55 241.252C161.611 238.549 165.399 236.358 168.777 234.046C170.195 233.075 171.889 232.12 172.994 230.795C172.499 228.603 171.571 226.485 170.837 224.363C170.172 222.44 169.671 220.489 169.183 218.516Z" fill="#E25636"/>
<path d="M169.184 218.516C173.07 215.497 177.227 212.852 181.297 210.09C186.41 206.62 191.456 203.096 196.633 199.723L201.791 209.045C200.493 210.869 197.47 212.294 195.632 213.633L179.34 225.529C177.439 226.897 175.197 228.007 173.414 229.479C173.298 229.574 173.125 229.632 173.073 229.773C172.987 230.009 173.011 230.531 172.994 230.795C172.499 228.603 171.571 226.485 170.838 224.363C170.173 222.44 169.671 220.489 169.184 218.516Z" fill="#EC7626"/>
<path d="M93.7291 217.922C96.2338 218.843 98.415 221.093 100.608 222.59C104.781 225.44 109.002 228.157 113.062 231.18C119.354 235.864 125.55 240.985 132.222 245.105C137.853 241.312 143.201 236.943 148.654 232.888C152.775 229.823 157.095 227.005 161.301 224.057C163.902 222.234 166.482 220.168 169.184 218.516C169.672 220.489 170.173 222.44 170.838 224.363C171.572 226.485 172.499 228.603 172.994 230.795C171.889 232.12 170.195 233.075 168.778 234.046C165.399 236.358 161.612 238.549 158.55 241.252C159.602 243.94 160.67 246.622 161.753 249.298C155.246 251.12 148.611 252.55 142.042 254.139C139.343 254.791 134.951 256.285 132.278 256.32C129.707 256.355 124.175 254.551 121.427 253.905L102.583 249.619C103.636 246.885 104.59 244.116 105.442 241.313C102.38 238.641 98.6697 236.247 95.2221 234.084C93.7881 233.183 92.2193 232.382 90.8596 231.384C90.2775 230.957 90.1627 230.799 90.0361 230.089C91.5979 226.217 93.0693 222.048 93.7291 217.922Z" fill="#5988A5"/>
<path d="M50.0193 14.7606C54.7951 16.2918 59.4076 18.7848 63.8376 21.1051C81.1205 30.1567 97.449 41.6113 110.371 56.366C124.618 53.5852 140.287 53.1473 154.509 56.3805C169.412 37.9965 191.914 24.4586 213.341 15.0055C219.719 37.2918 220.527 56.4508 217.11 79.3039C216.379 84.1883 215.762 89.2766 214.533 94.0602C213.776 92.4348 213.002 90.8375 212.142 89.2633C212.227 87.5485 212.499 85.8305 212.644 84.1172C212.999 79.7495 213.321 75.3793 213.608 71.0067C213.733 69.158 213.822 67.3077 213.877 65.4559C213.931 63.6038 213.951 61.7514 213.936 59.8988C213.921 58.046 213.872 56.1941 213.787 54.3434C213.702 52.4923 213.583 50.6436 213.429 48.7973C213.274 46.9509 213.086 45.1082 212.862 43.2692C212.638 41.4298 212.38 39.5953 212.088 37.7656C211.796 35.9362 211.469 34.1128 211.108 32.2953C210.746 30.4781 210.351 28.6684 209.922 26.866C207.051 27.5649 204.302 29.1914 201.72 30.6063C198.986 32.1065 196.298 33.6859 193.656 35.3445C191.015 37.0031 188.425 38.738 185.885 40.5492C183.346 42.3604 180.862 44.2447 178.434 46.202C176.006 48.1595 173.637 50.1869 171.328 52.284C167.918 54.459 162.818 60.4277 159.901 63.5852C147.754 59.6301 125.944 59.6457 113.241 61.7426C110.826 62.141 108.167 62.5109 105.936 63.5297C97.0279 52.7301 77.0185 37.843 64.59 31.6449L64.6185 32.0137L65.3302 32.4246C65.4669 33.5285 63.349 36.9727 62.6021 37.9414C62.2916 38.3442 61.956 38.716 61.4552 38.8621C61.1314 38.8266 60.89 38.693 60.6302 38.9356C59.756 39.7516 59.6361 42.1422 59.4224 43.3039C57.9494 51.3102 57.1107 59.2606 57.4845 67.4106C57.616 70.9288 58.0357 74.4123 58.7435 77.861C55.7517 81.227 53.7568 84.6535 51.7041 88.6332C51.0287 90.2777 50.406 91.9086 49.9685 93.6348C42.3255 68.7617 42.2853 39.6504 50.0193 14.7606Z" fill="#FED8B0"/>
<path d="M53.8806 26.1531C57.5587 27.5367 61.1595 29.7227 64.5904 31.6449L64.6189 32.0137L65.3306 32.4246C65.4673 33.5285 63.3494 36.9727 62.6025 37.9414C62.2919 38.3442 61.9564 38.716 61.4556 38.8621C61.1318 38.8266 60.8904 38.693 60.6306 38.9356C59.7564 39.7516 59.6365 42.1422 59.4228 43.3039C57.9498 51.3102 57.1111 59.2606 57.4849 67.4106C57.6164 70.9288 58.0361 74.4123 58.7439 77.861C55.7521 81.227 53.7572 84.6535 51.7044 88.6332C50.7728 85.1688 49.9591 81.7445 49.4748 78.1887C47.3486 62.584 49.1455 41.1457 53.8806 26.1531Z" fill="#EC7626"/>
<path d="M71.4868 181.164C74.8795 183.227 78.3066 185.232 81.7681 187.178C85.797 189.44 89.8067 191.573 93.5177 194.348C95.9794 196.189 98.2024 198.381 100.462 200.461C109.367 208.659 117.352 215.814 130.179 216.253C133.984 216.383 137.823 216.294 141.533 215.36C154.564 212.078 163.252 199.853 173.825 192.375C179.83 188.128 186.548 184.913 192.902 181.218C193.966 187.34 194.889 193.768 196.633 199.723C191.456 203.096 186.41 206.62 181.297 210.09C177.227 212.852 173.07 215.497 169.184 218.516C166.482 220.168 163.902 222.234 161.301 224.057C157.095 227.005 152.775 229.823 148.654 232.888C143.201 236.943 137.853 241.312 132.222 245.105C125.55 240.985 119.354 235.864 113.062 231.18C109.002 228.157 104.781 225.44 100.608 222.59C98.4149 221.093 96.2337 218.843 93.729 217.922C92.0282 217.357 81.6255 209.434 79.2599 207.778C75.2685 204.984 71.1048 202.203 66.8853 199.768C69.3247 192.892 70.4548 188.381 71.4868 181.164Z" fill="#A0CED6"/>
<path d="M119.082 137.839C120.599 133.4 122.584 129.137 124.272 124.764C125.26 122.206 125.898 119.378 127.215 116.968C127.749 115.992 128.463 115.072 129.472 114.556C130.83 113.864 132.573 114.09 133.952 114.611C137.398 115.91 139.205 119.963 140.557 123.115C141.483 125.276 142.157 127.486 142.687 129.775C143.174 131.881 143.368 134.548 144.389 136.452C144.96 137.518 145.794 138.286 146.7 139.056C146.812 139.151 146.92 139.249 147.03 139.346L148.067 139.483C150.36 139.687 152.456 139.992 154.567 140.972C159.385 143.209 164.017 148.505 165.799 153.475L161.997 157.095C164.708 156.037 167.801 152.518 170.206 150.631C172.432 148.885 174.702 147.026 177.103 145.53C183.845 141.326 191.826 138.889 199.499 137.039C203.803 135.947 208.081 134.759 212.332 133.473C214.487 133.084 216.422 131.968 218.654 131.769C219.272 132.617 219.904 133.449 220.392 134.382C215.394 136.976 209.353 139.483 204.642 142.282C209.673 144.31 214.65 146.147 219.005 149.485C212.881 154.335 206.593 158.962 200.142 163.367C197.637 165.093 195.169 166.906 192.564 168.477C184.525 173.326 175.931 177.163 168.208 182.57C163.585 185.806 159.297 189.679 155.106 193.447C151.541 196.652 147.978 200.276 143.703 202.516C139.169 204.893 133.758 205.657 128.706 205.031C125.25 204.602 122.03 203.359 119.086 201.511C114.126 198.398 110.026 194.109 105.723 190.183C102.792 187.523 99.7074 185.054 96.4686 182.778C90.4283 178.539 83.5842 175.672 77.1119 172.193C67.8006 167.187 59.4166 160.979 51.3346 154.201C49.2908 152.487 47.0291 150.802 45.1748 148.894C48.199 147.613 50.9686 145.969 53.8662 144.442C55.6873 143.482 57.6592 142.682 59.385 141.563C55.8415 139.756 52.2617 138.025 48.6455 136.369C49.3697 135.295 49.6045 133.7 50.5424 132.824C51.3322 132.087 52.3322 132.239 53.3322 132.247C57.5268 132.479 61.3147 133.566 65.3955 134.316C67.1514 134.091 69.0916 134.532 70.8514 134.689C72.7775 134.861 74.751 134.943 76.685 134.943C83.5342 134.943 95.5248 132.839 101.612 134.179C103.687 134.636 105.631 135.584 107.424 136.706C108.908 137.324 110.253 137.944 111.472 139.019C112.81 138.985 114.192 138.764 115.527 138.63C115.59 138.673 115.654 138.715 115.716 138.759C115.958 138.928 116.194 139.107 116.443 139.267C117.028 139.642 117.394 139.694 118.062 139.543C118.641 139.071 118.813 138.519 119.082 137.839Z" fill="url(#paint1_linear_2687_139)"/>
<path d="M98.2095 158.366C100.038 158.736 101.49 159.509 103.221 160.043L103.621 160.194L103.724 160.455C103.658 160.487 103.595 160.525 103.527 160.55C102.644 160.863 101.301 160.502 100.473 160.159C99.6645 159.825 98.5677 159.184 98.2095 158.366Z" fill="#FED8B0"/>
<path d="M107.424 136.706C108.908 137.324 110.253 137.944 111.472 139.019C105.993 142.962 100.836 147.023 94.9608 150.399L93.437 148.974C96.2237 145.551 103.376 138.003 107.424 136.706Z" fill="#E25636"/>
<path d="M80.1745 157.542C88.071 156.964 94.4554 159.834 100.342 164.88C96.1214 164.407 92.2253 163.25 88.1304 162.209C80.9605 160.162 73.5015 160.138 66.4097 162.441C70.6448 159.469 75.0358 157.982 80.1745 157.542Z" fill="#E25636"/>
<path d="M175.842 157.285C183.432 156.527 191.609 158.017 197.685 162.865C189.217 160.069 179.163 159.7 170.754 162.903C168.866 163.663 166.994 164.357 165.052 164.968C166.09 163.424 166.93 161.486 168.378 160.307L168.878 160.031C170.921 158.562 173.391 157.73 175.842 157.285Z" fill="#EC7626"/>
<path d="M186.604 146.798C190.962 146.164 196.843 146.78 201.092 147.948C202.426 148.314 208.395 150.041 209.265 150.647C209.388 150.732 209.412 150.905 209.485 151.035L209.659 150.904L209.633 150.808L209.513 151.027C208.707 150.897 207.88 150.686 207.091 150.471C200.819 148.764 191.583 149.578 185.219 150.802C179.079 152.286 173.795 154.232 168.041 156.853C167.686 155.902 167.336 155.178 166.645 154.425C172.133 149.409 179.418 147.465 186.604 146.798Z" fill="#EC7626"/>
<path d="M58.5693 148.359C67.7607 144.972 81.7018 146.162 90.6119 150.231C95.4908 152.458 98.9775 156.879 103.221 160.043C101.489 159.509 100.038 158.736 98.2092 158.366C94.7412 157.129 91.4424 155.509 88.0303 154.135C78.2834 150.208 69.0963 148.066 58.5693 148.359Z" fill="#E25636"/>
<path d="M65.3955 134.316C67.1514 134.091 69.0916 134.532 70.8514 134.689C72.7775 134.861 74.751 134.943 76.685 134.943C83.5342 134.943 95.5248 132.839 101.612 134.179C103.687 134.636 105.631 135.584 107.424 136.706C103.376 138.003 96.224 145.551 93.4373 148.974C84.474 141.704 76.3678 137.704 65.3955 134.316Z" fill="#EC7626"/>
<path d="M109.301 177.852C115.287 179.909 120.231 178.77 125.842 176.09C128.862 174.647 131.122 173.53 134.566 173.437C138.889 176.9 143.833 179.676 149.565 179.048C151.267 178.861 152.86 178.395 154.464 177.814C154.295 178.894 153.623 180.147 153.092 181.103C150.16 186.384 146.542 190.302 140.519 191.899C134.917 193.385 123.93 192.832 118.898 189.873C115.284 187.747 112.57 184.31 110.432 180.771C109.938 179.953 109.31 179.089 109.069 178.162L109.301 177.852Z" fill="white"/>
<path d="M129.813 163.3C126.28 160.281 118.657 153.872 118.411 148.977C118.378 148.313 118.511 147.741 118.976 147.242C120.829 145.252 129.908 144.527 132.691 144.565C136.941 144.623 144.002 145.641 147.153 148.845C147.53 149.229 147.862 149.782 147.771 150.343C147.473 152.184 136.475 161.656 134.456 163.304C136.415 168.079 139.666 171.299 144.455 173.321C149.82 175.586 155.324 175.262 160.876 173.991C158.743 175.17 156.702 176.904 154.464 177.814C152.859 178.395 151.267 178.861 149.564 179.048C143.833 179.676 138.889 176.9 134.566 173.437C131.121 173.53 128.862 174.647 125.842 176.09C120.23 178.77 115.287 179.909 109.301 177.852C106.883 176.6 104.474 175.283 102.234 173.729C109.395 175.375 116.292 175.724 122.763 171.641C125.997 169.6 128.295 166.795 129.813 163.3Z" fill="#000A31"/>
<path d="M122.257 148.849C125.094 148.036 127.992 147.398 130.943 147.192C133.219 147.032 139.519 147.483 141.111 149.112C141.51 149.521 141.513 149.785 141.513 150.332C141.144 151.116 140.479 151.581 139.83 152.127C137.905 153.867 134.769 157.389 132.032 157.263C129.612 157.152 126.835 154.497 125.327 152.732C125.201 152.585 125.085 152.429 124.967 152.275C123.875 151.27 123.015 150.118 122.257 148.849Z" fill="#E25636"/>
<path d="M171.328 52.284C173.637 50.1869 176.006 48.1595 178.434 46.202C180.862 44.2447 183.346 42.3604 185.885 40.5492C188.425 38.738 191.015 37.0031 193.657 35.3445C196.298 33.686 198.986 32.1065 201.721 30.6063C204.302 29.1914 207.051 27.5649 209.922 26.866C210.351 28.6684 210.747 30.4781 211.108 32.2953C211.469 34.1128 211.796 35.9362 212.088 37.7656C212.381 39.5953 212.639 41.4298 212.862 43.2692C213.086 45.1082 213.275 46.9509 213.429 48.7973C213.583 50.6436 213.702 52.4923 213.787 54.3434C213.872 56.1942 213.922 58.046 213.937 59.8988C213.951 61.7514 213.932 63.6038 213.877 65.4559C213.822 67.3077 213.733 69.158 213.609 71.0067C213.321 75.3793 213 79.7495 212.644 84.1172C212.499 85.8305 212.227 87.5485 212.142 89.2633C209.864 86.2457 207.733 82.7281 205.947 79.4004C206.368 68.3305 206.396 57.4465 205.058 46.4266C204.814 44.4156 204.724 41.2379 203.511 39.591C203.186 39.4242 203.117 39.3524 202.732 39.3512C200.723 39.3434 197.958 41.7141 196.369 42.8418C188.542 48.3973 181.435 54.5848 174.65 61.3805C173.729 62.6309 172.545 63.7188 171.441 64.8067C181.97 69.6516 194.446 75.1344 201.551 84.7086C203.932 87.9164 205.663 91.6563 207.046 95.3875C208.16 98.3914 209.198 101.513 209.956 104.626C210.671 107.559 211.1 110.566 211.714 113.523C213.047 119.936 215.231 126.17 218.653 131.769C216.422 131.968 214.487 133.084 212.332 133.473C208.081 134.759 203.803 135.947 199.498 137.039C191.826 138.889 183.845 141.326 177.103 145.53C174.702 147.026 172.432 148.885 170.206 150.631C167.801 152.518 164.708 156.037 161.997 157.095L165.799 153.475C164.017 148.505 159.384 143.209 154.567 140.972C152.455 139.992 150.36 139.687 148.067 139.483L147.03 139.346C146.92 139.249 146.812 139.151 146.7 139.056C145.793 138.286 144.96 137.518 144.389 136.452C143.368 134.548 143.173 131.88 142.686 129.775C142.157 127.486 141.483 125.276 140.557 123.115C139.205 119.963 137.398 115.91 133.952 114.611C132.573 114.09 130.83 113.864 129.472 114.556C128.463 115.072 127.748 115.992 127.215 116.968C125.898 119.378 125.26 122.206 124.272 124.764C122.584 129.137 120.598 133.4 119.082 137.839C118.812 138.519 118.641 139.071 118.062 139.543C117.394 139.694 117.027 139.642 116.442 139.267C116.194 139.107 115.958 138.928 115.716 138.759C115.653 138.715 115.59 138.673 115.526 138.63C114.192 138.764 112.81 138.985 111.472 139.019C110.253 137.944 108.908 137.324 107.424 136.706C105.63 135.584 103.687 134.636 101.612 134.179C95.5245 132.839 83.5339 134.943 76.6847 134.943C74.7507 134.943 72.7773 134.861 70.8511 134.689C69.0913 134.532 67.1511 134.091 65.3952 134.316C61.3144 133.566 57.5265 132.479 53.3319 132.247C52.594 132.107 51.8276 132.068 51.0796 131.997C55.1315 123.923 58.5151 114.412 59.3073 105.366C59.5605 102.477 59.9788 92.6942 58.2425 90.625C58.3995 90.2332 58.5726 89.8539 58.7554 89.4738C63.8108 78.9496 82.5933 68.7828 93.4554 64.9387C84.1925 54.6832 73.5624 45.5895 61.4554 38.8621C61.9562 38.716 62.2917 38.3442 62.6023 37.9414C63.3491 36.9727 65.4671 33.5285 65.3304 32.4246L64.6187 32.0137L64.5901 31.6449C77.0187 37.843 97.028 52.7301 105.937 63.5297C108.167 62.5109 110.826 62.141 113.241 61.7426C125.944 59.6457 147.754 59.6301 159.901 63.5852C162.819 60.4277 167.918 54.459 171.328 52.284Z" fill="url(#paint2_linear_2687_139)"/>
<path d="M71.1303 107.804C78.5846 103.455 87.0904 100.311 95.7943 102.648C103.122 104.615 108.332 109.841 111.985 116.297C112.638 117.452 113.246 118.63 113.81 119.83C114.374 121.031 114.892 122.251 115.363 123.491C115.835 124.731 116.26 125.986 116.637 127.258C117.014 128.53 117.343 129.814 117.624 131.111C118.118 133.334 118.375 135.674 119.082 137.839C118.812 138.519 118.64 139.071 118.062 139.543C117.394 139.694 117.027 139.642 116.442 139.267C116.194 139.107 115.958 138.928 115.716 138.759C115.653 138.715 115.59 138.673 115.526 138.63C113.951 136.272 112.833 133.768 110.947 131.603C107.289 131.018 103.715 131.248 100.047 130.989C91.3522 130.376 85.54 126.199 82.8596 117.852C82.4041 116.434 81.8522 113.634 80.7443 112.6C79.4443 111.387 67.6857 112.474 65.2197 112.559C67.0354 110.829 69.1666 109.367 71.1303 107.804Z" fill="#000A31"/>
<path d="M89.36 107.35C91.6338 107.141 93.8389 107.554 96.0201 108.154C94.3151 112.279 93.2311 117.876 95.0877 122.151C95.417 122.909 95.967 123.771 96.8115 124.011C97.4221 124.184 98.0264 123.969 98.5135 123.602C101.311 121.495 102.264 115.902 102.655 112.677C105.532 115.282 107.313 118.002 109.024 121.461C109.412 122.403 110.019 123.557 110.086 124.573C110.136 125.338 109.644 125.996 109.12 126.509C107.377 128.216 104.435 128.512 102.105 128.509C97.2795 128.503 92.3822 127.391 88.8873 123.858C84.7885 119.716 84.2959 113.443 84.3471 107.946C86.0104 107.682 87.6813 107.483 89.36 107.35Z" fill="#A0CED6"/>
<path d="M142.903 66.6711C143.497 69.7387 144.746 83.3286 145.92 84.8653C146.377 85.4625 147.114 86.1368 147.906 86.1668C149.915 86.2438 152.273 85.1528 154.22 84.6598C157.787 83.7567 161.732 83.5418 165.382 83.9586C176.868 85.2711 186.399 92.9707 193.402 101.741C198.092 106.122 209.36 126.882 212.332 133.473C208.081 134.759 203.803 135.947 199.499 137.039C191.826 138.889 183.845 141.326 177.103 145.53C174.702 147.026 172.432 148.885 170.206 150.631C167.801 152.518 164.708 156.037 161.997 157.095L165.799 153.475C164.017 148.505 159.385 143.209 154.567 140.972C152.456 139.992 150.36 139.687 148.067 139.483L147.03 139.346C146.92 139.249 146.812 139.151 146.7 139.056C145.794 138.286 144.96 137.518 144.389 136.452C143.368 134.548 143.174 131.881 142.687 129.775C142.157 127.486 141.483 125.276 140.557 123.115C139.205 119.963 137.398 115.91 133.952 114.611C132.573 114.09 130.83 113.864 129.472 114.556C128.463 115.072 127.749 115.992 127.215 116.968C125.898 119.378 125.26 122.206 124.272 124.764C122.584 129.137 120.599 133.4 119.082 137.839C118.376 135.674 118.118 133.334 117.624 131.111C117.344 129.814 117.015 128.53 116.638 127.258C116.26 125.986 115.836 124.731 115.364 123.491C114.892 122.251 114.374 121.031 113.81 119.83C113.247 118.63 112.638 117.452 111.986 116.297C108.332 109.841 103.122 104.615 95.7947 102.648C87.0908 100.311 78.585 103.455 71.1307 107.804C71.1291 107.592 71.1178 107.557 71.1811 107.32C71.9432 104.47 76.615 97.6028 78.59 95.411C86.1275 87.0458 96.2338 82.5579 107.606 84.1383C109.971 84.4672 115.768 86.7309 117.711 85.5485C118.558 85.0336 118.928 84.0985 119.193 83.184C119.642 81.6313 119.699 79.959 119.836 78.3559C120.161 74.5586 120.261 70.5918 121.246 66.8981C122.935 68.6973 124.246 70.6672 125.283 72.9102C126.449 75.4332 128.853 84.3911 130.389 85.711C131.379 86.5622 133.215 86.2731 134.398 86.1129C135.584 83.8891 136.112 81.3309 136.834 78.9305C137.157 77.8305 137.527 76.7467 137.945 75.679C138.362 74.611 138.825 73.5633 139.334 72.536C139.842 71.5086 140.395 70.5053 140.991 69.5258C141.587 68.5464 142.224 67.5948 142.903 66.6711Z" fill="#EC7626"/>
<path d="M156.706 93.4575C158.132 93.343 159.308 93.5024 160.493 94.3684C161.434 95.0563 162.109 96.0743 162.236 97.2469C162.34 98.2079 162.052 99.3879 161.396 100.116C159.782 101.906 153.806 105.86 151.577 106.69C150.938 106.927 150.188 106.954 149.516 107.001C148.236 106.841 147.166 106.623 146.044 105.949C144.945 105.289 143.636 104.184 143.388 102.852C143.234 102.023 143.557 101.218 144.05 100.563C146.376 97.4696 152.834 94.0001 156.706 93.4575Z" fill="#FED8B0"/>
<path d="M104.717 93.0227C105.496 92.9774 106.224 93.0457 106.984 93.2301C110.571 94.0981 118.015 97.9875 119.861 101.166C120.313 101.945 120.513 102.843 120.25 103.721C119.768 105.327 118.194 106.076 116.824 106.795C115.625 107.111 114.54 107.131 113.339 106.812C110.311 106.007 103.451 101.894 101.941 99.2141C101.414 98.2785 101.197 97.1723 101.509 96.1282C101.996 94.4973 103.314 93.7641 104.717 93.0227Z" fill="#FED8B0"/>
<path d="M147.03 139.346C147.008 130.219 148.979 119.686 154.226 112.124C154.447 111.802 154.675 111.486 154.91 111.175C155.146 110.865 155.39 110.56 155.641 110.262C155.892 109.964 156.15 109.672 156.416 109.386C156.682 109.101 156.955 108.822 157.234 108.55C157.514 108.279 157.8 108.014 158.093 107.757C158.386 107.499 158.685 107.249 158.991 107.007C159.296 106.764 159.608 106.53 159.925 106.303C160.242 106.076 160.565 105.857 160.893 105.646C161.221 105.436 161.554 105.233 161.893 105.039C162.231 104.846 162.574 104.66 162.922 104.484C163.269 104.307 163.621 104.139 163.977 103.98C164.333 103.821 164.693 103.67 165.057 103.529C165.42 103.388 165.787 103.256 166.157 103.133C166.527 103.011 166.9 102.897 167.276 102.793C167.652 102.689 168.03 102.595 168.411 102.509C168.791 102.424 169.174 102.349 169.558 102.283C177.017 100.99 187.593 104.51 193.633 108.78L193.51 109.004C189.899 109.679 185.824 110.668 183.602 113.919C181.996 116.267 180.778 118.88 179.292 121.304C176.423 125.983 172.165 129.873 166.626 130.906C163.195 131.546 155.99 129.536 154.246 130.469C152.938 132.866 150.267 137.948 148.067 139.483L147.03 139.346Z" fill="#000A31"/>
<path d="M168.915 107.29C172.463 106.92 176.297 107.413 179.715 108.382C179.787 109.988 179.687 111.432 179.324 113.002C178.142 118.124 175.218 123.921 170.601 126.753C165.706 129.755 160.143 128.279 154.962 126.991C154.604 126.679 154.395 126.469 154.247 126.008C153.59 123.959 157.014 117.146 158.161 115.178C158.547 114.515 159.071 113.596 159.838 113.404C161.031 115.148 161.569 119.605 163.428 122.383C163.815 122.963 164.38 123.637 165.128 123.702C165.567 123.74 165.96 123.558 166.303 123.303C169.43 120.974 168.601 115.637 167.908 112.341C167.624 110.992 167.038 109.311 167.247 107.937C167.693 107.514 168.336 107.437 168.915 107.29Z" fill="#A0CED6"/>
<defs>
<linearGradient id="paint0_linear_2687_139" x1="233.748" y1="140.012" x2="228.24" y2="79.7653" gradientUnits="userSpaceOnUse">
<stop stop-color="#54CCD2"/>
<stop offset="1" stop-color="#98E6E5"/>
</linearGradient>
<linearGradient id="paint1_linear_2687_139" x1="134.592" y1="204.719" x2="132.005" y2="114.441" gradientUnits="userSpaceOnUse">
<stop stop-color="#C8D0C9"/>
<stop offset="1" stop-color="#FFFFEB"/>
</linearGradient>
<linearGradient id="paint2_linear_2687_139" x1="136.416" y1="25.894" x2="134.718" y2="139.257" gradientUnits="userSpaceOnUse">
<stop stop-color="#FA7B33"/>
<stop offset="1" stop-color="#F7BA75"/>
</linearGradient>
</defs>
</svg>
