<svg width="150" height="40" viewBox="0 0 150 40" fill="none" xmlns="http://www.w3.org/2000/svg">
<g clip-path="url(#clip0_627_230)">
<path d="M50.1724 37.2176C50.1724 35.9359 49.9592 35.3638 49.0503 34.9861L48.1526 34.6085C47.513 34.3339 47.3896 34.0935 47.3896 33.2925C47.3896 32.8691 47.4794 32.5373 47.6701 32.3198C47.8048 32.1711 48.0067 32.0681 48.2873 32.0681C48.5902 32.0681 48.8034 32.1711 48.9381 32.3427C49.14 32.5945 49.1849 32.892 49.1849 33.3268H50.1499C50.1499 32.583 50.0265 32.0566 49.6225 31.6561C49.3196 31.3586 48.882 31.1869 48.2985 31.1869C47.7711 31.1869 47.3447 31.3586 47.0305 31.6561C46.6266 32.0338 46.4246 32.6174 46.4246 33.3268C46.4246 34.5627 46.6939 35.0205 47.513 35.3637L48.4219 35.7414C49.0727 36.016 49.2074 36.3021 49.2074 37.2404C49.2074 37.7783 49.1625 38.0873 48.9493 38.3276C48.8034 38.4878 48.5902 38.5908 48.2648 38.5908C47.9619 38.5908 47.7374 38.4878 47.6028 38.339C47.3896 38.1101 47.3335 37.8126 47.3335 37.2748H46.3685C46.3685 38.1445 46.4919 38.6136 46.8622 38.9913C47.1764 39.3117 47.6477 39.4833 48.2648 39.4833C48.9044 39.4833 49.3757 39.2888 49.6786 38.9913C50.0602 38.6022 50.1724 38.0644 50.1724 37.2176ZM57.1185 32.1367V31.2556H53.4717V32.1367H54.8182V39.4032H55.7832V32.1367H57.1185ZM64.3357 37.5494V31.2556H63.3707V37.6066C63.3707 38.2475 62.9667 38.6136 62.4842 38.6136C62.0017 38.6136 61.609 38.2475 61.609 37.6066V31.2556H60.644V37.5494C60.644 38.1445 60.8348 38.6251 61.1602 38.9569C61.508 39.3117 61.9681 39.4948 62.4842 39.4948C63.0004 39.4948 63.4717 39.3117 63.8195 38.9569C64.1449 38.6251 64.3357 38.1445 64.3357 37.5494ZM72.1265 35.3294C72.1265 33.1209 72.0703 32.3885 71.5542 31.8278C71.2624 31.4959 70.8361 31.2556 70.1852 31.2556H68.345V39.4032H70.1852C70.8361 39.4032 71.2624 39.1629 71.5542 38.8311C72.0703 38.2703 72.1265 37.538 72.1265 35.3294ZM71.1615 35.3294C71.1615 37.2061 71.139 37.8355 70.8361 38.2131C70.6902 38.3962 70.4658 38.5221 70.1516 38.5221H69.31V32.1367H70.1516C70.4658 32.1367 70.6902 32.2626 70.8361 32.4457C71.139 32.8233 71.1615 33.4527 71.1615 35.3294ZM76.9766 39.4032V31.2556H76.0116V39.4032H76.9766ZM84.7733 35.3294C84.7733 33.0751 84.706 32.3427 84.1899 31.7591C83.8757 31.4044 83.4493 31.1641 82.8209 31.1641C82.1925 31.1641 81.7661 31.4044 81.452 31.7591C80.9358 32.3427 80.8685 33.0751 80.8685 35.3294C80.8685 37.5837 80.9358 38.3161 81.452 38.8997C81.7661 39.2545 82.1925 39.4948 82.8209 39.4948C83.4493 39.4948 83.8757 39.2545 84.1899 38.8997C84.706 38.3161 84.7733 37.5837 84.7733 35.3294ZM83.8084 35.3294C83.8084 37.2633 83.7522 37.9156 83.4717 38.3047C83.3371 38.4878 83.1351 38.6136 82.8209 38.6136C82.5067 38.6136 82.2935 38.4878 82.1589 38.3047C81.8784 37.9156 81.8335 37.2633 81.8335 35.3294C81.8335 33.3955 81.8784 32.7432 82.1589 32.3542C82.2935 32.1711 82.5067 32.0452 82.8209 32.0452C83.1351 32.0452 83.3371 32.1711 83.4717 32.3542C83.7522 32.7432 83.8084 33.3955 83.8084 35.3294Z" fill="white"/>
<path d="M57.6958 19.1246C57.6958 15.1467 57.0341 13.3708 54.2131 12.1987L51.4269 11.0266C49.4418 10.1742 49.0587 9.42838 49.0587 6.94216C49.0587 5.62802 49.3373 4.59802 49.9294 3.92319C50.3473 3.46146 50.9742 3.14181 51.8449 3.14181C52.7852 3.14181 53.4469 3.46146 53.8648 3.99422C54.4917 4.7756 54.631 5.69906 54.631 7.04872H57.6262C57.6262 4.74009 57.2431 3.10629 55.9893 1.86318C55.049 0.939731 53.6907 0.406971 51.8797 0.406971C50.2428 0.406971 48.9194 0.939731 47.9442 1.86318C46.6905 3.03525 46.0636 4.84664 46.0636 7.04872C46.0636 10.8846 46.8994 12.3053 49.4418 13.3708L52.2628 14.5429C54.2828 15.3953 54.7007 16.2832 54.7007 19.1956C54.7007 20.865 54.5614 21.8239 53.8997 22.5698C53.4469 23.067 52.7852 23.3867 51.7752 23.3867C50.8349 23.3867 50.1383 23.067 49.7204 22.6053C49.0587 21.895 48.8846 20.9715 48.8846 19.3022H45.8894C45.8894 22.0015 46.2725 23.4577 47.4218 24.6298C48.397 25.6243 49.8597 26.157 51.7752 26.157C53.7604 26.157 55.2231 25.5532 56.1634 24.6298C57.3475 23.4222 57.6958 21.7529 57.6958 19.1246ZM74.2011 25.9084L68.4546 11.0622L73.4697 0.620075H70.405L64.4147 13.4418V0.620075H61.4196V25.9084H64.4147V18.8405L66.574 14.4718L70.9622 25.9084H74.2011ZM86.7198 0.620075H83.4112L80.6251 11.4173L77.8389 0.620075H74.5652L79.1275 15.6794V25.9084H82.1226V15.6794L86.7198 0.620075ZM98.5799 25.9084V23.1736H91.9975V0.620075H89.0024V25.9084H98.5799ZM104.582 25.9084V0.620075H101.586V25.9084H104.582ZM120.283 19.835V12.3408H114.537V14.8625H117.288V19.9415C117.288 22.0015 116.278 23.4577 114.537 23.4577C113.562 23.4577 112.9 23.067 112.482 22.4988C111.611 21.2912 111.472 19.2667 111.472 13.2642C111.472 7.26182 111.611 5.23733 112.482 4.02974C112.9 3.46146 113.562 3.07077 114.537 3.07077C116.835 3.07077 117.253 5.1663 117.288 6.87113H120.249C120.214 4.84664 119.691 3.07077 118.541 1.8987C117.601 0.939731 116.278 0.335938 114.537 0.335938C112.587 0.335938 111.228 1.11732 110.288 2.18284C108.686 3.99422 108.476 6.26733 108.476 13.2642C108.476 20.2612 108.686 22.5343 110.288 24.3457C111.228 25.4112 112.587 26.1926 114.537 26.1926C117.776 26.1926 120.249 24.0615 120.283 19.835ZM135.663 25.9084V0.620075H132.667V11.666H127.164V0.620075H124.17V25.9084H127.164V14.4008H132.667V25.9084H135.663ZM149.942 3.35491V0.620075H138.623V3.35491H142.803V25.9084H145.797V3.35491H149.942Z" fill="white"/>
<path fill-rule="evenodd" clip-rule="evenodd" d="M36.2032 2.15911H22.4418V6.90915H20.3246V2.15911C20.3246 0.966666 21.2725 0 22.4418 0H36.2032C37.3725 0 38.3204 0.966667 38.3204 2.15911V16.1933C38.3204 17.3858 37.3725 18.3524 36.2032 18.3524H31.7572V16.1933H36.2032V2.15911ZM22.4418 11.6592V16.1933H27.0995V18.3524H22.4418C21.2725 18.3524 20.3246 17.3858 20.3246 16.1933V11.6592H22.4418ZM6.56316 21.1593H2.11715C0.94788 21.1593 0 22.1259 0 23.3184V37.3526C0 38.5451 0.947879 39.5117 2.11715 39.5117H15.8786C17.0479 39.5117 17.9958 38.5451 17.9958 37.3526V32.6026H15.8786V37.3526H2.11715V23.3184H6.56316V21.1593ZM11.2209 23.3184V21.1593H15.8786C17.0479 21.1593 17.9958 22.1259 17.9958 23.3184V27.8525H15.8786V23.3184H11.2209Z" fill="#2760AB"/>
<path fill-rule="evenodd" clip-rule="evenodd" d="M15.8786 2.15911H2.11715V16.1933H6.56316V18.3524H2.11715C0.947879 18.3524 0 17.3858 0 16.1933V2.15911C0 0.966666 0.94788 0 2.11715 0H15.8786C17.0479 0 17.9958 0.966667 17.9958 2.15911V6.90915H15.8786V2.15911ZM11.2209 16.1933H15.8786V11.6592H17.9958V16.1933C17.9958 17.3858 17.0479 18.3524 15.8786 18.3524H11.2209V16.1933ZM20.3246 32.6026V37.3526C20.3246 38.5451 21.2725 39.5117 22.4418 39.5117H36.2032C37.3725 39.5117 38.3204 38.5451 38.3204 37.3526V23.3184C38.3204 22.1259 37.3725 21.1593 36.2032 21.1593H31.7572V23.3184H36.2032V37.3526H22.4418V32.6026H20.3246ZM22.4418 27.8525H20.3246V23.3184C20.3246 22.1259 21.2725 21.1593 22.4418 21.1593H27.0995V23.3184H22.4418V27.8525Z" fill="white"/>
</g>
<defs>
<clipPath id="clip0_627_230">
<rect width="150" height="39.5117" fill="white"/>
</clipPath>
</defs>
</svg>
