<svg width="150" height="39" viewBox="0 0 150 39" fill="none" xmlns="http://www.w3.org/2000/svg">
<path d="M50.1724 36.7368C50.1724 35.4718 49.9592 34.907 49.0503 34.5343L48.1526 34.1615C47.513 33.8905 47.3896 33.6533 47.3896 32.8626C47.3896 32.4447 47.4794 32.1171 47.6701 31.9025C47.8048 31.7557 48.0067 31.654 48.2873 31.654C48.5902 31.654 48.8034 31.7557 48.9381 31.9251C49.14 32.1736 49.1849 32.4673 49.1849 32.8965H50.1499C50.1499 32.1623 50.0265 31.6427 49.6225 31.2474C49.3196 30.9537 48.882 30.7843 48.2985 30.7843C47.7711 30.7843 47.3447 30.9537 47.0305 31.2474C46.6266 31.6201 46.4246 32.1962 46.4246 32.8965C46.4246 34.1164 46.6939 34.5682 47.513 34.907L48.4219 35.2798C49.0727 35.5508 49.2074 35.8332 49.2074 36.7594C49.2074 37.2903 49.1625 37.5952 48.9493 37.8324C48.8034 37.9906 48.5902 38.0922 48.2648 38.0922C47.9619 38.0922 47.7374 37.9906 47.6028 37.8437C47.3896 37.6178 47.3335 37.3242 47.3335 36.7933H46.3685C46.3685 37.6517 46.4919 38.1148 46.8622 38.4876C47.1764 38.8038 47.6477 38.9732 48.2648 38.9732C48.9044 38.9732 49.3757 38.7812 49.6786 38.4876C50.0602 38.1035 50.1724 37.5727 50.1724 36.7368ZM57.1185 31.7218V30.8521H53.4717V31.7218H54.8182V38.8942H55.7832V31.7218H57.1185ZM64.3357 37.0644V30.8521H63.3707V37.1209C63.3707 37.7534 62.9667 38.1148 62.4842 38.1148C62.0017 38.1148 61.609 37.7534 61.609 37.1209V30.8521H60.644V37.0644C60.644 37.6517 60.8348 38.1261 61.1602 38.4537C61.508 38.8038 61.9681 38.9845 62.4842 38.9845C63.0004 38.9845 63.4717 38.8038 63.8195 38.4537C64.1449 38.1261 64.3357 37.6517 64.3357 37.0644ZM72.1265 34.8731C72.1265 32.6932 72.0703 31.9703 71.5542 31.4168C71.2624 31.0893 70.8361 30.8521 70.1852 30.8521H68.345V38.8942H70.1852C70.8361 38.8942 71.2624 38.657 71.5542 38.3294C72.0703 37.776 72.1265 37.0531 72.1265 34.8731ZM71.1615 34.8731C71.1615 36.7255 71.139 37.3468 70.8361 37.7195C70.6902 37.9002 70.4658 38.0245 70.1516 38.0245H69.31V31.7218H70.1516C70.4658 31.7218 70.6902 31.846 70.8361 32.0268C71.139 32.3995 71.1615 33.0207 71.1615 34.8731ZM76.9766 38.8942V30.8521H76.0116V38.8942H76.9766ZM84.7733 34.8731C84.7733 32.648 84.706 31.9251 84.1899 31.3491C83.8757 30.9989 83.4493 30.7617 82.8209 30.7617C82.1925 30.7617 81.7662 30.9989 81.452 31.3491C80.9358 31.9251 80.8685 32.648 80.8685 34.8731C80.8685 37.0983 80.9358 37.8211 81.452 38.3972C81.7662 38.7473 82.1925 38.9845 82.8209 38.9845C83.4493 38.9845 83.8757 38.7473 84.1899 38.3972C84.706 37.8211 84.7733 37.0983 84.7733 34.8731ZM83.8084 34.8731C83.8084 36.782 83.7522 37.4258 83.4717 37.8099C83.3371 37.9906 83.1351 38.1148 82.8209 38.1148C82.5067 38.1148 82.2935 37.9906 82.1589 37.8099C81.8784 37.4258 81.8335 36.782 81.8335 34.8731C81.8335 32.9643 81.8784 32.3204 82.1589 31.9364C82.2935 31.7557 82.5067 31.6314 82.8209 31.6314C83.1351 31.6314 83.3371 31.7557 83.4717 31.9364C83.7522 32.3204 83.8084 32.9643 83.8084 34.8731Z" fill="#ffffff"/>
<path d="M57.6958 18.8774C57.6958 14.9509 57.0341 13.1981 54.2131 12.0412L51.4269 10.8843C49.4418 10.0429 49.0587 9.30672 49.0587 6.8527C49.0587 5.55558 49.3373 4.53891 49.9294 3.87282C50.3473 3.41708 50.9742 3.10156 51.8449 3.10156C52.7852 3.10156 53.4469 3.41708 53.8648 3.94294C54.4917 4.7142 54.631 5.62569 54.631 6.95787H57.6262C57.6262 4.67914 57.2431 3.0665 55.9893 1.8395C55.049 0.928005 53.6907 0.402145 51.8797 0.402145C50.2428 0.402145 48.9194 0.928005 47.9442 1.8395C46.6905 2.99639 46.0636 4.78432 46.0636 6.95787C46.0636 10.7441 46.8994 12.1464 49.4418 13.1981L52.2628 14.355C54.2828 15.1963 54.7007 16.0728 54.7007 18.9475C54.7007 20.5952 54.5614 21.5417 53.8997 22.2779C53.4469 22.7687 52.7852 23.0843 51.7752 23.0843C50.8349 23.0843 50.1383 22.7687 49.7204 22.313C49.0587 21.6118 48.8846 20.7004 48.8846 19.0527H45.8894C45.8894 21.717 46.2725 23.1544 47.4218 24.3113C48.397 25.2929 49.8597 25.8187 51.7752 25.8187C53.7604 25.8187 55.2231 25.2228 56.1634 24.3113C57.3476 23.1193 57.6958 21.4716 57.6958 18.8774ZM74.2011 25.5733L68.4546 10.9193L73.4697 0.612489H70.405L64.4147 13.2682V0.612489H61.4196V25.5733H64.4147V18.5969L66.574 14.2849L70.9622 25.5733H74.2011ZM86.7198 0.612489H83.4112L80.6251 11.2699L77.8389 0.612489H74.5652L79.1275 15.4768V25.5733H82.1226V15.4768L86.7198 0.612489ZM98.5799 25.5733V22.8739H91.9975V0.612489H89.0024V25.5733H98.5799ZM104.582 25.5733V0.612489H101.586V25.5733H104.582ZM120.283 19.5785V12.1814H114.537V14.6705H117.288V19.6837C117.288 21.717 116.278 23.1544 114.537 23.1544C113.562 23.1544 112.9 22.7687 112.482 22.2078C111.611 21.0159 111.472 19.0176 111.472 13.0929C111.472 7.16822 111.611 5.16995 112.482 3.978C112.9 3.41708 113.562 3.03145 114.537 3.03145C116.835 3.03145 117.253 5.09983 117.288 6.78259H120.249C120.214 4.78432 119.691 3.03145 118.541 1.87455C117.601 0.928006 116.278 0.332031 114.537 0.332031C112.587 0.332031 111.228 1.10329 110.288 2.15501C108.686 3.94294 108.476 6.18661 108.476 13.0929C108.476 19.9992 108.686 22.2429 110.288 24.0308C111.228 25.0825 112.587 25.8538 114.537 25.8538C117.776 25.8538 120.249 23.7503 120.283 19.5785ZM135.663 25.5733V0.612489H132.667V11.5153H127.164V0.612489H124.17V25.5733H127.164V14.2147H132.667V25.5733H135.663ZM149.942 3.31191V0.612489H138.623V3.31191H142.803V25.5733H145.797V3.31191H149.942Z" fill="#ffffff"/>
<path fill-rule="evenodd" clip-rule="evenodd" d="M36.2032 2.13115H22.4418V6.81967H20.3246V2.13115C20.3246 0.954147 21.2725 0 22.4418 0H36.2032C37.3725 0 38.3204 0.954148 38.3204 2.13115V15.9836C38.3204 17.1606 37.3725 18.1148 36.2032 18.1148H31.7572V15.9836H36.2032V2.13115ZM22.4418 11.5082V15.9836H27.0995V18.1148H22.4418C21.2725 18.1148 20.3246 17.1606 20.3246 15.9836V11.5082H22.4418ZM6.56316 20.8852H2.11715C0.94788 20.8852 0 21.8394 0 23.0164V36.8689C0 38.0459 0.947879 39 2.11715 39H15.8786C17.0479 39 17.9958 38.0459 17.9958 36.8689V32.1803H15.8786V36.8689H2.11715V23.0164H6.56316V20.8852ZM11.2209 23.0164V20.8852H15.8786C17.0479 20.8852 17.9958 21.8394 17.9958 23.0164V27.4918H15.8786V23.0164H11.2209Z" fill="#2760AB"/>
<path fill-rule="evenodd" clip-rule="evenodd" d="M15.8786 2.13115H2.11715V15.9836H6.56316V18.1148H2.11715C0.947879 18.1148 0 17.1606 0 15.9836V2.13115C0 0.954147 0.94788 0 2.11715 0H15.8786C17.0479 0 17.9958 0.954148 17.9958 2.13115V6.81967H15.8786V2.13115ZM11.2209 15.9836H15.8786V11.5082H17.9958V15.9836C17.9958 17.1606 17.0479 18.1148 15.8786 18.1148H11.2209V15.9836ZM20.3246 32.1803V36.8689C20.3246 38.0459 21.2725 39 22.4418 39H36.2032C37.3725 39 38.3204 38.0459 38.3204 36.8689V23.0164C38.3204 21.8394 37.3725 20.8852 36.2032 20.8852H31.7572V23.0164H36.2032V36.8689H22.4418V32.1803H20.3246ZM22.4418 27.4918H20.3246V23.0164C20.3246 21.8394 21.2725 20.8852 22.4418 20.8852H27.0995V23.0164H22.4418V27.4918Z" fill="#ffffff"/>
</svg>
